ISO-10303-21;
HEADER;
/* Generated by software containing ST-Developer
 * from STEP Tools, Inc. (www.steptools.com) 
 */
/* OPTION: using custom renumber hook */

FILE_DESCRIPTION(
/* description */ ('STEP AP242 Edition 2',
'CAx-IF Rec.Pracs.---Representation and Presentation of Product Manufa
cturing Information (PMI)---4.0---2014-10-13',
'CAx-IF Rec.Pracs.---3D Tessellated Geometry---0.4---2014-09-14','2;1',
'CAx-IF Rec.Pracs.---User Defined Attributes---1.5---2016-08-15'),
/* implementation_level */ '2;1');

FILE_NAME(
/* name */ 'case',
/* time_stamp */ '2026-08-02T18:21:04Z',
/* author */ (''),
/* organization */ (''),
/* preprocessor_version */ 'ST-DEVELOPER v20',
/* originating_system */ 'ONSHAPE BY PTC INC, 1.218',
/* authorisation */ '  ');

FILE_SCHEMA (('AP242_MANAGED_MODEL_BASED_3D_ENGINEERING_MIM_LF { 1 0 10303 442 3 1 4 }'));
ENDSEC;

DATA;
#10=SHAPE_REPRESENTATION_RELATIONSHIP('','',#369,#11);
#11=ADVANCED_BREP_SHAPE_REPRESENTATION('',(#367),#595);
#12=CIRCLE('',#375,0.00145);
#13=CIRCLE('',#376,0.00145);
#14=CIRCLE('',#378,0.00145);
#15=CIRCLE('',#379,0.00145);
#16=CIRCLE('',#381,0.00145);
#17=CIRCLE('',#382,0.00145);
#18=CIRCLE('',#384,0.00145);
#19=CIRCLE('',#385,0.00145);
#20=CIRCLE('',#387,0.004);
#21=CIRCLE('',#388,0.004);
#22=CIRCLE('',#393,0.004);
#23=CIRCLE('',#394,0.004);
#24=CYLINDRICAL_SURFACE('',#374,0.00145);
#25=CYLINDRICAL_SURFACE('',#377,0.00145);
#26=CYLINDRICAL_SURFACE('',#380,0.00145);
#27=CYLINDRICAL_SURFACE('',#383,0.00145);
#28=CYLINDRICAL_SURFACE('',#399,0.004);
#29=CYLINDRICAL_SURFACE('',#401,0.004);
#30=ORIENTED_EDGE('',*,*,#118,.F.);
#31=ORIENTED_EDGE('',*,*,#119,.F.);
#32=ORIENTED_EDGE('',*,*,#120,.T.);
#33=ORIENTED_EDGE('',*,*,#121,.T.);
#34=ORIENTED_EDGE('',*,*,#122,.T.);
#35=ORIENTED_EDGE('',*,*,#123,.F.);
#36=ORIENTED_EDGE('',*,*,#124,.F.);
#37=ORIENTED_EDGE('',*,*,#119,.T.);
#38=ORIENTED_EDGE('',*,*,#125,.T.);
#39=ORIENTED_EDGE('',*,*,#126,.F.);
#40=ORIENTED_EDGE('',*,*,#127,.F.);
#41=ORIENTED_EDGE('',*,*,#123,.T.);
#42=ORIENTED_EDGE('',*,*,#128,.F.);
#43=ORIENTED_EDGE('',*,*,#129,.T.);
#44=ORIENTED_EDGE('',*,*,#130,.F.);
#45=ORIENTED_EDGE('',*,*,#131,.T.);
#46=ORIENTED_EDGE('',*,*,#132,.F.);
#47=ORIENTED_EDGE('',*,*,#133,.T.);
#48=ORIENTED_EDGE('',*,*,#134,.F.);
#49=ORIENTED_EDGE('',*,*,#135,.T.);
#50=ORIENTED_EDGE('',*,*,#136,.F.);
#51=ORIENTED_EDGE('',*,*,#137,.F.);
#52=ORIENTED_EDGE('',*,*,#138,.T.);
#53=ORIENTED_EDGE('',*,*,#139,.F.);
#54=ORIENTED_EDGE('',*,*,#140,.F.);
#55=ORIENTED_EDGE('',*,*,#121,.F.);
#56=ORIENTED_EDGE('',*,*,#141,.T.);
#57=ORIENTED_EDGE('',*,*,#126,.T.);
#58=ORIENTED_EDGE('',*,*,#118,.T.);
#59=ORIENTED_EDGE('',*,*,#140,.T.);
#60=ORIENTED_EDGE('',*,*,#125,.F.);
#61=ORIENTED_EDGE('',*,*,#122,.F.);
#62=ORIENTED_EDGE('',*,*,#128,.T.);
#63=ORIENTED_EDGE('',*,*,#130,.T.);
#64=ORIENTED_EDGE('',*,*,#132,.T.);
#65=ORIENTED_EDGE('',*,*,#134,.T.);
#66=ORIENTED_EDGE('',*,*,#142,.T.);
#67=ORIENTED_EDGE('',*,*,#143,.T.);
#68=ORIENTED_EDGE('',*,*,#144,.F.);
#69=ORIENTED_EDGE('',*,*,#145,.T.);
#70=ORIENTED_EDGE('',*,*,#146,.F.);
#71=ORIENTED_EDGE('',*,*,#147,.F.);
#72=ORIENTED_EDGE('',*,*,#148,.F.);
#73=ORIENTED_EDGE('',*,*,#144,.T.);
#74=ORIENTED_EDGE('',*,*,#149,.T.);
#75=ORIENTED_EDGE('',*,*,#150,.T.);
#76=ORIENTED_EDGE('',*,*,#151,.T.);
#77=ORIENTED_EDGE('',*,*,#152,.F.);
#78=ORIENTED_EDGE('',*,*,#153,.F.);
#79=ORIENTED_EDGE('',*,*,#154,.F.);
#80=ORIENTED_EDGE('',*,*,#155,.F.);
#81=ORIENTED_EDGE('',*,*,#147,.T.);
#82=ORIENTED_EDGE('',*,*,#154,.T.);
#83=ORIENTED_EDGE('',*,*,#156,.T.);
#84=ORIENTED_EDGE('',*,*,#142,.F.);
#85=ORIENTED_EDGE('',*,*,#157,.T.);
#86=ORIENTED_EDGE('',*,*,#145,.F.);
#87=ORIENTED_EDGE('',*,*,#148,.T.);
#88=ORIENTED_EDGE('',*,*,#155,.T.);
#89=ORIENTED_EDGE('',*,*,#157,.F.);
#90=ORIENTED_EDGE('',*,*,#135,.F.);
#91=ORIENTED_EDGE('',*,*,#133,.F.);
#92=ORIENTED_EDGE('',*,*,#131,.F.);
#93=ORIENTED_EDGE('',*,*,#129,.F.);
#94=ORIENTED_EDGE('',*,*,#120,.F.);
#95=ORIENTED_EDGE('',*,*,#124,.T.);
#96=ORIENTED_EDGE('',*,*,#127,.T.);
#97=ORIENTED_EDGE('',*,*,#141,.F.);
#98=ORIENTED_EDGE('',*,*,#143,.F.);
#99=ORIENTED_EDGE('',*,*,#156,.F.);
#100=ORIENTED_EDGE('',*,*,#153,.T.);
#101=ORIENTED_EDGE('',*,*,#146,.T.);
#102=ORIENTED_EDGE('',*,*,#158,.T.);
#103=ORIENTED_EDGE('',*,*,#136,.T.);
#104=ORIENTED_EDGE('',*,*,#159,.F.);
#105=ORIENTED_EDGE('',*,*,#150,.F.);
#106=ORIENTED_EDGE('',*,*,#159,.T.);
#107=ORIENTED_EDGE('',*,*,#139,.T.);
#108=ORIENTED_EDGE('',*,*,#160,.F.);
#109=ORIENTED_EDGE('',*,*,#151,.F.);
#110=ORIENTED_EDGE('',*,*,#152,.T.);
#111=ORIENTED_EDGE('',*,*,#160,.T.);
#112=ORIENTED_EDGE('',*,*,#138,.F.);
#113=ORIENTED_EDGE('',*,*,#161,.F.);
#114=ORIENTED_EDGE('',*,*,#161,.T.);
#115=ORIENTED_EDGE('',*,*,#137,.T.);
#116=ORIENTED_EDGE('',*,*,#158,.F.);
#117=ORIENTED_EDGE('',*,*,#149,.F.);
#118=EDGE_CURVE('',#162,#163,#194,.T.);
#119=EDGE_CURVE('',#164,#162,#195,.T.);
#120=EDGE_CURVE('',#164,#165,#196,.T.);
#121=EDGE_CURVE('',#165,#163,#197,.T.);
#122=EDGE_CURVE('',#162,#166,#198,.T.);
#123=EDGE_CURVE('',#167,#166,#199,.T.);
#124=EDGE_CURVE('',#164,#167,#200,.T.);
#125=EDGE_CURVE('',#166,#168,#201,.T.);
#126=EDGE_CURVE('',#169,#168,#202,.T.);
#127=EDGE_CURVE('',#167,#169,#203,.T.);
#128=EDGE_CURVE('',#170,#170,#12,.T.);
#129=EDGE_CURVE('',#171,#171,#13,.T.);
#130=EDGE_CURVE('',#172,#172,#14,.T.);
#131=EDGE_CURVE('',#173,#173,#15,.T.);
#132=EDGE_CURVE('',#174,#174,#16,.T.);
#133=EDGE_CURVE('',#175,#175,#17,.T.);
#134=EDGE_CURVE('',#176,#176,#18,.T.);
#135=EDGE_CURVE('',#177,#177,#19,.T.);
#136=EDGE_CURVE('',#178,#179,#204,.T.);
#137=EDGE_CURVE('',#180,#178,#20,.T.);
#138=EDGE_CURVE('',#180,#181,#205,.T.);
#139=EDGE_CURVE('',#179,#181,#21,.T.);
#140=EDGE_CURVE('',#163,#168,#206,.T.);
#141=EDGE_CURVE('',#165,#169,#207,.T.);
#142=EDGE_CURVE('',#182,#183,#208,.T.);
#143=EDGE_CURVE('',#183,#184,#209,.T.);
#144=EDGE_CURVE('',#185,#184,#210,.T.);
#145=EDGE_CURVE('',#185,#182,#211,.T.);
#146=EDGE_CURVE('',#186,#184,#212,.T.);
#147=EDGE_CURVE('',#187,#186,#213,.T.);
#148=EDGE_CURVE('',#185,#187,#214,.T.);
#149=EDGE_CURVE('',#188,#189,#22,.T.);
#150=EDGE_CURVE('',#189,#190,#215,.T.);
#151=EDGE_CURVE('',#190,#191,#23,.T.);
#152=EDGE_CURVE('',#188,#191,#216,.T.);
#153=EDGE_CURVE('',#192,#186,#217,.T.);
#154=EDGE_CURVE('',#193,#192,#218,.T.);
#155=EDGE_CURVE('',#187,#193,#219,.T.);
#156=EDGE_CURVE('',#192,#183,#220,.T.);
#157=EDGE_CURVE('',#182,#193,#221,.T.);
#158=EDGE_CURVE('',#189,#178,#222,.T.);
#159=EDGE_CURVE('',#190,#179,#223,.T.);
#160=EDGE_CURVE('',#191,#181,#224,.T.);
#161=EDGE_CURVE('',#188,#180,#225,.T.);
#162=VERTEX_POINT('',#501);
#163=VERTEX_POINT('',#502);
#164=VERTEX_POINT('',#504);
#165=VERTEX_POINT('',#506);
#166=VERTEX_POINT('',#510);
#167=VERTEX_POINT('',#512);
#168=VERTEX_POINT('',#516);
#169=VERTEX_POINT('',#518);
#170=VERTEX_POINT('',#522);
#171=VERTEX_POINT('',#524);
#172=VERTEX_POINT('',#527);
#173=VERTEX_POINT('',#529);
#174=VERTEX_POINT('',#532);
#175=VERTEX_POINT('',#534);
#176=VERTEX_POINT('',#537);
#177=VERTEX_POINT('',#539);
#178=VERTEX_POINT('',#542);
#179=VERTEX_POINT('',#543);
#180=VERTEX_POINT('',#545);
#181=VERTEX_POINT('',#547);
#182=VERTEX_POINT('',#554);
#183=VERTEX_POINT('',#555);
#184=VERTEX_POINT('',#557);
#185=VERTEX_POINT('',#559);
#186=VERTEX_POINT('',#563);
#187=VERTEX_POINT('',#565);
#188=VERTEX_POINT('',#569);
#189=VERTEX_POINT('',#570);
#190=VERTEX_POINT('',#572);
#191=VERTEX_POINT('',#574);
#192=VERTEX_POINT('',#577);
#193=VERTEX_POINT('',#579);
#194=LINE('',#500,#226);
#195=LINE('',#503,#227);
#196=LINE('',#505,#228);
#197=LINE('',#507,#229);
#198=LINE('',#509,#230);
#199=LINE('',#511,#231);
#200=LINE('',#513,#232);
#201=LINE('',#515,#233);
#202=LINE('',#517,#234);
#203=LINE('',#519,#235);
#204=LINE('',#541,#236);
#205=LINE('',#546,#237);
#206=LINE('',#549,#238);
#207=LINE('',#550,#239);
#208=LINE('',#553,#240);
#209=LINE('',#556,#241);
#210=LINE('',#558,#242);
#211=LINE('',#560,#243);
#212=LINE('',#562,#244);
#213=LINE('',#564,#245);
#214=LINE('',#566,#246);
#215=LINE('',#571,#247);
#216=LINE('',#575,#248);
#217=LINE('',#576,#249);
#218=LINE('',#578,#250);
#219=LINE('',#580,#251);
#220=LINE('',#582,#252);
#221=LINE('',#583,#253);
#222=LINE('',#587,#254);
#223=LINE('',#588,#255);
#224=LINE('',#590,#256);
#225=LINE('',#592,#257);
#226=VECTOR('',#406,1.);
#227=VECTOR('',#407,1.);
#228=VECTOR('',#408,1.);
#229=VECTOR('',#409,1.);
#230=VECTOR('',#412,1.);
#231=VECTOR('',#413,1.);
#232=VECTOR('',#414,1.);
#233=VECTOR('',#417,1.);
#234=VECTOR('',#418,1.);
#235=VECTOR('',#419,1.);
#236=VECTOR('',#446,1.);
#237=VECTOR('',#449,1.);
#238=VECTOR('',#452,1.);
#239=VECTOR('',#453,1.);
#240=VECTOR('',#458,1.);
#241=VECTOR('',#459,1.);
#242=VECTOR('',#460,1.);
#243=VECTOR('',#461,1.);
#244=VECTOR('',#464,1.);
#245=VECTOR('',#465,1.);
#246=VECTOR('',#466,1.);
#247=VECTOR('',#471,1.);
#248=VECTOR('',#474,1.);
#249=VECTOR('',#475,1.);
#250=VECTOR('',#476,1.);
#251=VECTOR('',#477,1.);
#252=VECTOR('',#480,1.);
#253=VECTOR('',#481,1.);
#254=VECTOR('',#488,1.);
#255=VECTOR('',#489,1.);
#256=VECTOR('',#492,1.);
#257=VECTOR('',#495,1.);
#258=EDGE_LOOP('',(#30,#31,#32,#33));
#259=EDGE_LOOP('',(#34,#35,#36,#37));
#260=EDGE_LOOP('',(#38,#39,#40,#41));
#261=EDGE_LOOP('',(#42));
#262=EDGE_LOOP('',(#43));
#263=EDGE_LOOP('',(#44));
#264=EDGE_LOOP('',(#45));
#265=EDGE_LOOP('',(#46));
#266=EDGE_LOOP('',(#47));
#267=EDGE_LOOP('',(#48));
#268=EDGE_LOOP('',(#49));
#269=EDGE_LOOP('',(#50,#51,#52,#53));
#270=EDGE_LOOP('',(#54,#55,#56,#57));
#271=EDGE_LOOP('',(#58,#59,#60,#61));
#272=EDGE_LOOP('',(#62));
#273=EDGE_LOOP('',(#63));
#274=EDGE_LOOP('',(#64));
#275=EDGE_LOOP('',(#65));
#276=EDGE_LOOP('',(#66,#67,#68,#69));
#277=EDGE_LOOP('',(#70,#71,#72,#73));
#278=EDGE_LOOP('',(#74,#75,#76,#77));
#279=EDGE_LOOP('',(#78,#79,#80,#81));
#280=EDGE_LOOP('',(#82,#83,#84,#85));
#281=EDGE_LOOP('',(#86,#87,#88,#89));
#282=EDGE_LOOP('',(#90));
#283=EDGE_LOOP('',(#91));
#284=EDGE_LOOP('',(#92));
#285=EDGE_LOOP('',(#93));
#286=EDGE_LOOP('',(#94,#95,#96,#97));
#287=EDGE_LOOP('',(#98,#99,#100,#101));
#288=EDGE_LOOP('',(#102,#103,#104,#105));
#289=EDGE_LOOP('',(#106,#107,#108,#109));
#290=EDGE_LOOP('',(#110,#111,#112,#113));
#291=EDGE_LOOP('',(#114,#115,#116,#117));
#292=FACE_BOUND('',#258,.T.);
#293=FACE_BOUND('',#259,.T.);
#294=FACE_BOUND('',#260,.T.);
#295=FACE_BOUND('',#261,.T.);
#296=FACE_BOUND('',#262,.T.);
#297=FACE_BOUND('',#263,.T.);
#298=FACE_BOUND('',#264,.T.);
#299=FACE_BOUND('',#265,.T.);
#300=FACE_BOUND('',#266,.T.);
#301=FACE_BOUND('',#267,.T.);
#302=FACE_BOUND('',#268,.T.);
#303=FACE_BOUND('',#269,.T.);
#304=FACE_BOUND('',#270,.T.);
#305=FACE_BOUND('',#271,.T.);
#306=FACE_BOUND('',#272,.T.);
#307=FACE_BOUND('',#273,.T.);
#308=FACE_BOUND('',#274,.T.);
#309=FACE_BOUND('',#275,.T.);
#310=FACE_BOUND('',#276,.T.);
#311=FACE_BOUND('',#277,.T.);
#312=FACE_BOUND('',#278,.T.);
#313=FACE_BOUND('',#279,.T.);
#314=FACE_BOUND('',#280,.T.);
#315=FACE_BOUND('',#281,.T.);
#316=FACE_BOUND('',#282,.T.);
#317=FACE_BOUND('',#283,.T.);
#318=FACE_BOUND('',#284,.T.);
#319=FACE_BOUND('',#285,.T.);
#320=FACE_BOUND('',#286,.T.);
#321=FACE_BOUND('',#287,.T.);
#322=FACE_BOUND('',#288,.T.);
#323=FACE_BOUND('',#289,.T.);
#324=FACE_BOUND('',#290,.T.);
#325=FACE_BOUND('',#291,.T.);
#326=PLANE('',#371);
#327=PLANE('',#372);
#328=PLANE('',#373);
#329=PLANE('',#386);
#330=PLANE('',#389);
#331=PLANE('',#390);
#332=PLANE('',#391);
#333=PLANE('',#392);
#334=PLANE('',#395);
#335=PLANE('',#396);
#336=PLANE('',#397);
#337=PLANE('',#398);
#338=PLANE('',#400);
#339=ADVANCED_FACE('',(#292),#326,.T.);
#340=ADVANCED_FACE('',(#293),#327,.F.);
#341=ADVANCED_FACE('',(#294),#328,.F.);
#342=ADVANCED_FACE('',(#295,#296),#24,.F.);
#343=ADVANCED_FACE('',(#297,#298),#25,.F.);
#344=ADVANCED_FACE('',(#299,#300),#26,.F.);
#345=ADVANCED_FACE('',(#301,#302),#27,.F.);
#346=ADVANCED_FACE('',(#303,#304),#329,.T.);
#347=ADVANCED_FACE('',(#305,#306,#307,#308,#309),#330,.F.);
#348=ADVANCED_FACE('',(#310),#331,.T.);
#349=ADVANCED_FACE('',(#311),#332,.F.);
#350=ADVANCED_FACE('',(#312,#313),#333,.F.);
#351=ADVANCED_FACE('',(#314),#334,.T.);
#352=ADVANCED_FACE('',(#315,#316,#317,#318,#319,#320),#335,.T.);
#353=ADVANCED_FACE('',(#321),#336,.T.);
#354=ADVANCED_FACE('',(#322),#337,.F.);
#355=ADVANCED_FACE('',(#323),#28,.F.);
#356=ADVANCED_FACE('',(#324),#338,.T.);
#357=ADVANCED_FACE('',(#325),#29,.F.);
#358=CLOSED_SHELL('',(#339,#340,#341,#342,#343,#344,#345,#346,#347,#348,
#349,#350,#351,#352,#353,#354,#355,#356,#357));
#359=STYLED_ITEM('',(#360),#367);
#360=PRESENTATION_STYLE_ASSIGNMENT((#361));
#361=SURFACE_STYLE_USAGE(.BOTH.,#362);
#362=SURFACE_SIDE_STYLE('',(#363));
#363=SURFACE_STYLE_FILL_AREA(#364);
#364=FILL_AREA_STYLE('',(#365));
#365=FILL_AREA_STYLE_COLOUR('',#366);
#366=COLOUR_RGB('',0.615686274509804,0.811764705882353,0.929411764705882);
#367=MANIFOLD_SOLID_BREP('Part 1',#358);
#368=SHAPE_DEFINITION_REPRESENTATION(#600,#369);
#369=SHAPE_REPRESENTATION('Part 1',(#370),#595);
#370=AXIS2_PLACEMENT_3D('',#498,#402,#403);
#371=AXIS2_PLACEMENT_3D('',#499,#404,#405);
#372=AXIS2_PLACEMENT_3D('',#508,#410,#411);
#373=AXIS2_PLACEMENT_3D('',#514,#415,#416);
#374=AXIS2_PLACEMENT_3D('',#520,#420,#421);
#375=AXIS2_PLACEMENT_3D('',#521,#422,#423);
#376=AXIS2_PLACEMENT_3D('',#523,#424,#425);
#377=AXIS2_PLACEMENT_3D('',#525,#426,#427);
#378=AXIS2_PLACEMENT_3D('',#526,#428,#429);
#379=AXIS2_PLACEMENT_3D('',#528,#430,#431);
#380=AXIS2_PLACEMENT_3D('',#530,#432,#433);
#381=AXIS2_PLACEMENT_3D('',#531,#434,#435);
#382=AXIS2_PLACEMENT_3D('',#533,#436,#437);
#383=AXIS2_PLACEMENT_3D('',#535,#438,#439);
#384=AXIS2_PLACEMENT_3D('',#536,#440,#441);
#385=AXIS2_PLACEMENT_3D('',#538,#442,#443);
#386=AXIS2_PLACEMENT_3D('',#540,#444,#445);
#387=AXIS2_PLACEMENT_3D('',#544,#447,#448);
#388=AXIS2_PLACEMENT_3D('',#548,#450,#451);
#389=AXIS2_PLACEMENT_3D('',#551,#454,#455);
#390=AXIS2_PLACEMENT_3D('',#552,#456,#457);
#391=AXIS2_PLACEMENT_3D('',#561,#462,#463);
#392=AXIS2_PLACEMENT_3D('',#567,#467,#468);
#393=AXIS2_PLACEMENT_3D('',#568,#469,#470);
#394=AXIS2_PLACEMENT_3D('',#573,#472,#473);
#395=AXIS2_PLACEMENT_3D('',#581,#478,#479);
#396=AXIS2_PLACEMENT_3D('',#584,#482,#483);
#397=AXIS2_PLACEMENT_3D('',#585,#484,#485);
#398=AXIS2_PLACEMENT_3D('',#586,#486,#487);
#399=AXIS2_PLACEMENT_3D('',#589,#490,#491);
#400=AXIS2_PLACEMENT_3D('',#591,#493,#494);
#401=AXIS2_PLACEMENT_3D('',#593,#496,#497);
#402=DIRECTION('',(0.,0.,1.));
#403=DIRECTION('',(1.,0.,0.));
#404=DIRECTION('',(1.25704599708464E-16,-1.,0.));
#405=DIRECTION('',(1.,1.25704599708464E-16,0.));
#406=DIRECTION('',(-1.,-1.25704599708464E-16,0.));
#407=DIRECTION('',(0.,0.,-1.));
#408=DIRECTION('',(-1.,-1.25704599708464E-16,0.));
#409=DIRECTION('',(0.,0.,-1.));
#410=DIRECTION('',(-1.,0.,0.));
#411=DIRECTION('',(0.,0.,1.));
#412=DIRECTION('',(0.,1.,0.));
#413=DIRECTION('',(0.,0.,-1.));
#414=DIRECTION('',(0.,1.,0.));
#415=DIRECTION('',(1.25704599708464E-16,-1.,0.));
#416=DIRECTION('',(1.,1.25704599708464E-16,0.));
#417=DIRECTION('',(-1.,-1.25704599708464E-16,0.));
#418=DIRECTION('',(0.,0.,-1.));
#419=DIRECTION('',(-1.,-1.25704599708464E-16,0.));
#420=DIRECTION('',(0.,0.,-1.));
#421=DIRECTION('',(-1.,0.,0.));
#422=DIRECTION('',(0.,0.,1.));
#423=DIRECTION('',(1.,0.,0.));
#424=DIRECTION('',(0.,0.,1.));
#425=DIRECTION('',(1.,0.,0.));
#426=DIRECTION('',(0.,0.,-1.));
#427=DIRECTION('',(-1.,0.,0.));
#428=DIRECTION('',(0.,0.,1.));
#429=DIRECTION('',(1.,0.,0.));
#430=DIRECTION('',(0.,0.,1.));
#431=DIRECTION('',(1.,0.,0.));
#432=DIRECTION('',(0.,0.,-1.));
#433=DIRECTION('',(-1.,0.,0.));
#434=DIRECTION('',(0.,0.,1.));
#435=DIRECTION('',(1.,0.,0.));
#436=DIRECTION('',(0.,0.,1.));
#437=DIRECTION('',(1.,0.,0.));
#438=DIRECTION('',(0.,0.,-1.));
#439=DIRECTION('',(-1.,0.,0.));
#440=DIRECTION('',(0.,0.,1.));
#441=DIRECTION('',(1.,0.,0.));
#442=DIRECTION('',(0.,0.,1.));
#443=DIRECTION('',(1.,0.,0.));
#444=DIRECTION('',(-1.,0.,0.));
#445=DIRECTION('',(0.,0.,1.));
#446=DIRECTION('',(0.,1.,0.));
#447=DIRECTION('',(-1.,0.,0.));
#448=DIRECTION('',(0.,0.,1.));
#449=DIRECTION('',(0.,1.,-1.0842021724855E-16));
#450=DIRECTION('',(-1.,0.,0.));
#451=DIRECTION('',(0.,0.,1.));
#452=DIRECTION('',(0.,1.,0.));
#453=DIRECTION('',(0.,1.,0.));
#454=DIRECTION('',(0.,0.,1.));
#455=DIRECTION('',(1.,0.,0.));
#456=DIRECTION('',(-1.,0.,0.));
#457=DIRECTION('',(0.,0.,1.));
#458=DIRECTION('',(0.,0.,-1.));
#459=DIRECTION('',(0.,-1.,0.));
#460=DIRECTION('',(0.,0.,-1.));
#461=DIRECTION('',(0.,1.,0.));
#462=DIRECTION('',(1.53515351856354E-16,-1.,0.));
#463=DIRECTION('',(1.,1.53515351856354E-16,0.));
#464=DIRECTION('',(1.,1.53515351856354E-16,0.));
#465=DIRECTION('',(0.,0.,-1.));
#466=DIRECTION('',(-1.,-1.53515351856354E-16,0.));
#467=DIRECTION('',(-1.,0.,0.));
#468=DIRECTION('',(0.,0.,1.));
#469=DIRECTION('',(-1.,0.,0.));
#470=DIRECTION('',(0.,0.,1.));
#471=DIRECTION('',(0.,1.,0.));
#472=DIRECTION('',(-1.,0.,0.));
#473=DIRECTION('',(0.,0.,1.));
#474=DIRECTION('',(0.,1.,-1.0842021724855E-16));
#475=DIRECTION('',(0.,-1.,0.));
#476=DIRECTION('',(0.,0.,-1.));
#477=DIRECTION('',(0.,1.,0.));
#478=DIRECTION('',(1.53515351856354E-16,-1.,0.));
#479=DIRECTION('',(1.,1.53515351856354E-16,0.));
#480=DIRECTION('',(1.,1.53515351856354E-16,0.));
#481=DIRECTION('',(-1.,-1.53515351856354E-16,0.));
#482=DIRECTION('',(0.,0.,1.));
#483=DIRECTION('',(1.,0.,0.));
#484=DIRECTION('',(0.,0.,1.));
#485=DIRECTION('',(1.,0.,0.));
#486=DIRECTION('',(0.,0.,1.));
#487=DIRECTION('',(1.,0.,0.));
#488=DIRECTION('',(-1.,0.,0.));
#489=DIRECTION('',(-1.,0.,0.));
#490=DIRECTION('',(-1.,0.,0.));
#491=DIRECTION('',(0.,0.,1.));
#492=DIRECTION('',(-1.,0.,0.));
#493=DIRECTION('',(0.,1.0842021724855E-16,1.));
#494=DIRECTION('',(0.,-1.,1.0842021724855E-16));
#495=DIRECTION('',(-1.,0.,0.));
#496=DIRECTION('',(-1.,0.,0.));
#497=DIRECTION('',(0.,0.,1.));
#498=CARTESIAN_POINT('',(0.,0.,0.));
#499=CARTESIAN_POINT('',(0.,-0.0302,0.003));
#500=CARTESIAN_POINT('',(0.,-0.0302,0.));
#501=CARTESIAN_POINT('',(0.0552,-0.0302,0.));
#502=CARTESIAN_POINT('',(-0.0552,-0.0302,0.));
#503=CARTESIAN_POINT('',(0.0552,-0.0302,0.003));
#504=CARTESIAN_POINT('',(0.0552,-0.0302,0.013));
#505=CARTESIAN_POINT('',(0.,-0.0302,0.013));
#506=CARTESIAN_POINT('',(-0.0552,-0.0302,0.013));
#507=CARTESIAN_POINT('',(-0.0552,-0.0302,0.003));
#508=CARTESIAN_POINT('',(0.0552,6.93889390390723E-18,0.003));
#509=CARTESIAN_POINT('',(0.0552,6.93889390390723E-18,0.));
#510=CARTESIAN_POINT('',(0.0552,0.0302,0.));
#511=CARTESIAN_POINT('',(0.0552,0.0302,0.003));
#512=CARTESIAN_POINT('',(0.0552,0.0302,0.013));
#513=CARTESIAN_POINT('',(0.0552,6.93889390390723E-18,0.013));
#514=CARTESIAN_POINT('',(0.,0.0302,0.003));
#515=CARTESIAN_POINT('',(0.,0.0302,0.));
#516=CARTESIAN_POINT('',(-0.0552,0.0302,0.));
#517=CARTESIAN_POINT('',(-0.0552,0.0302,0.003));
#518=CARTESIAN_POINT('',(-0.0552,0.0302,0.013));
#519=CARTESIAN_POINT('',(0.,0.0302,0.013));
#520=CARTESIAN_POINT('',(-0.0502,0.0252,0.003));
#521=CARTESIAN_POINT('',(-0.0502,0.0252,0.));
#522=CARTESIAN_POINT('',(-0.04875,0.0252,0.));
#523=CARTESIAN_POINT('',(-0.0502,0.0252,0.013));
#524=CARTESIAN_POINT('',(-0.04875,0.0252,0.013));
#525=CARTESIAN_POINT('',(-0.0502,-0.0252,0.003));
#526=CARTESIAN_POINT('',(-0.0502,-0.0252,0.));
#527=CARTESIAN_POINT('',(-0.04875,-0.0252,0.));
#528=CARTESIAN_POINT('',(-0.0502,-0.0252,0.013));
#529=CARTESIAN_POINT('',(-0.04875,-0.0252,0.013));
#530=CARTESIAN_POINT('',(0.0502,-0.0252,0.003));
#531=CARTESIAN_POINT('',(0.0502,-0.0252,0.));
#532=CARTESIAN_POINT('',(0.05165,-0.0252,0.));
#533=CARTESIAN_POINT('',(0.0502,-0.0252,0.013));
#534=CARTESIAN_POINT('',(0.05165,-0.0252,0.013));
#535=CARTESIAN_POINT('',(0.0502,0.0252,0.003));
#536=CARTESIAN_POINT('',(0.0502,0.0252,0.));
#537=CARTESIAN_POINT('',(0.05165,0.0252,0.));
#538=CARTESIAN_POINT('',(0.0502,0.0252,0.013));
#539=CARTESIAN_POINT('',(0.05165,0.0252,0.013));
#540=CARTESIAN_POINT('',(-0.0552,-6.93889390390723E-18,0.003));
#541=CARTESIAN_POINT('',(-0.0552,2.60208521396521E-18,0.0118474102050066));
#542=CARTESIAN_POINT('',(-0.0552,-0.006,0.0118474102050066));
#543=CARTESIAN_POINT('',(-0.0552,0.006,0.0118474102050066));
#544=CARTESIAN_POINT('',(-0.0552,-0.006,0.0078474102050066));
#545=CARTESIAN_POINT('',(-0.0552,-0.006,0.0038474102050066));
#546=CARTESIAN_POINT('',(-0.0552,8.67361737988404E-19,0.0038474102050066));
#547=CARTESIAN_POINT('',(-0.0552,0.006,0.0038474102050066));
#548=CARTESIAN_POINT('',(-0.0552,0.006,0.0078474102050066));
#549=CARTESIAN_POINT('',(-0.0552,-6.93889390390723E-18,0.));
#550=CARTESIAN_POINT('',(-0.0552,-6.93889390390723E-18,0.013));
#551=CARTESIAN_POINT('',(0.,0.,0.));
#552=CARTESIAN_POINT('',(0.0452,3.46944695195361E-18,0.013));
#553=CARTESIAN_POINT('',(0.0452,0.0202,0.013));
#554=CARTESIAN_POINT('',(0.0452,0.0202,0.013));
#555=CARTESIAN_POINT('',(0.0452,0.0202,0.003));
#556=CARTESIAN_POINT('',(0.0452,0.,0.003));
#557=CARTESIAN_POINT('',(0.0452,-0.0202,0.003));
#558=CARTESIAN_POINT('',(0.0452,-0.0202,0.013));
#559=CARTESIAN_POINT('',(0.0452,-0.0202,0.013));
#560=CARTESIAN_POINT('',(0.0452,3.46944695195361E-18,0.013));
#561=CARTESIAN_POINT('',(0.,-0.0202,0.013));
#562=CARTESIAN_POINT('',(3.10101010749836E-18,-0.0202,0.003));
#563=CARTESIAN_POINT('',(-0.0452,-0.0202,0.003));
#564=CARTESIAN_POINT('',(-0.0452,-0.0202,0.013));
#565=CARTESIAN_POINT('',(-0.0452,-0.0202,0.013));
#566=CARTESIAN_POINT('',(0.,-0.0202,0.013));
#567=CARTESIAN_POINT('',(-0.0452,-3.46944695195361E-18,0.013));
#568=CARTESIAN_POINT('',(-0.0452,-0.006,0.0078474102050066));
#569=CARTESIAN_POINT('',(-0.0452,-0.006,0.0038474102050066));
#570=CARTESIAN_POINT('',(-0.0452,-0.006,0.0118474102050066));
#571=CARTESIAN_POINT('',(-0.0452,-3.46944695195361E-18,0.0118474102050066));
#572=CARTESIAN_POINT('',(-0.0452,0.006,0.0118474102050066));
#573=CARTESIAN_POINT('',(-0.0452,0.006,0.0078474102050066));
#574=CARTESIAN_POINT('',(-0.0452,0.006,0.0038474102050066));
#575=CARTESIAN_POINT('',(-0.0452,-4.46177272591366E-18,0.0038474102050066));
#576=CARTESIAN_POINT('',(-0.0452,0.,0.003));
#577=CARTESIAN_POINT('',(-0.0452,0.0202,0.003));
#578=CARTESIAN_POINT('',(-0.0452,0.0202,0.013));
#579=CARTESIAN_POINT('',(-0.0452,0.0202,0.013));
#580=CARTESIAN_POINT('',(-0.0452,-3.46944695195361E-18,0.013));
#581=CARTESIAN_POINT('',(0.,0.0202,0.013));
#582=CARTESIAN_POINT('',(-3.10101010749836E-18,0.0202,0.003));
#583=CARTESIAN_POINT('',(0.,0.0202,0.013));
#584=CARTESIAN_POINT('',(0.,0.,0.013));
#585=CARTESIAN_POINT('',(0.,0.,0.003));
#586=CARTESIAN_POINT('',(-0.0352,2.60208521396521E-18,0.0118474102050066));
#587=CARTESIAN_POINT('',(-0.0352,-0.006,0.0118474102050066));
#588=CARTESIAN_POINT('',(-0.0352,0.006,0.0118474102050066));
#589=CARTESIAN_POINT('',(-0.0352,0.006,0.0078474102050066));
#590=CARTESIAN_POINT('',(-0.0352,0.006,0.0038474102050066));
#591=CARTESIAN_POINT('',(-0.0352,8.67361737988404E-19,0.0038474102050066));
#592=CARTESIAN_POINT('',(-0.0352,-0.006,0.0038474102050066));
#593=CARTESIAN_POINT('',(-0.0352,-0.006,0.0078474102050066));
#594=MECHANICAL_DESIGN_GEOMETRIC_PRESENTATION_REPRESENTATION('',(#359),
#595);
#595=(
GEOMETRIC_REPRESENTATION_CONTEXT(3)
GLOBAL_UNCERTAINTY_ASSIGNED_CONTEXT((#596))
GLOBAL_UNIT_ASSIGNED_CONTEXT((#599,#598,#597))
REPRESENTATION_CONTEXT('Part 1','TOP_LEVEL_ASSEMBLY_PART')
);
#596=UNCERTAINTY_MEASURE_WITH_UNIT(LENGTH_MEASURE(1.E-8),#599,
'DISTANCE_ACCURACY_VALUE','Maximum Tolerance applied to model');
#597=(
NAMED_UNIT(*)
SI_UNIT($,.STERADIAN.)
SOLID_ANGLE_UNIT()
);
#598=(
NAMED_UNIT(*)
PLANE_ANGLE_UNIT()
SI_UNIT($,.RADIAN.)
);
#599=(
LENGTH_UNIT()
NAMED_UNIT(*)
SI_UNIT($,.METRE.)
);
#600=PRODUCT_DEFINITION_SHAPE('','',#601);
#601=PRODUCT_DEFINITION('','',#603,#602);
#602=PRODUCT_DEFINITION_CONTEXT('',#609,'design');
#603=PRODUCT_DEFINITION_FORMATION_WITH_SPECIFIED_SOURCE('','',#605,
 .NOT_KNOWN.);
#604=PRODUCT_RELATED_PRODUCT_CATEGORY('','',(#605));
#605=PRODUCT('Part 1','Part 1','Part 1',(#607));
#606=PRODUCT_CATEGORY('','');
#607=PRODUCT_CONTEXT('',#609,'mechanical');
#608=APPLICATION_PROTOCOL_DEFINITION('international standard',
'ap242_managed_model_based_3d_engineering',2020,#609);
#609=APPLICATION_CONTEXT('managed model based 3d engineering');
ENDSEC;
END-ISO-10303-21;
